<svg width="24" height="24" viewBox="0 0 24 24" fill="none" xmlns="http://www.w3.org/2000/svg">
<path d="M4.85714 2C3.27919 2 2 3.27919 2 4.85714V19.1429C2 20.7208 3.27919 22 4.85714 22C6.4351 22 7.71429 20.7208 7.71429 19.1429V4.85714C7.71429 3.27919 6.4351 2 4.85714 2ZM3.42857 4.85714C3.42857 4.06816 4.06816 3.42857 4.85714 3.42857C5.64612 3.42857 6.28571 4.06816 6.28571 4.85714V19.1429C6.28571 19.9318 5.64612 20.5714 4.85714 20.5714C4.06816 20.5714 3.42857 19.9318 3.42857 19.1429V4.85714ZM9.14286 9.14286C9.14286 7.5649 10.422 6.28571 12 6.28571C13.578 6.28571 14.8571 7.5649 14.8571 9.14286V19.1429C14.8571 20.7208 13.578 22 12 22C10.422 22 9.14286 20.7208 9.14286 19.1429V9.14286ZM12 7.71429C11.211 7.71429 10.5714 8.35388 10.5714 9.14286V19.1429C10.5714 19.9318 11.211 20.5714 12 20.5714C12.789 20.5714 13.4286 19.9318 13.4286 19.1429V9.14286C13.4286 8.35388 12.789 7.71429 12 7.71429ZM16.2857 13.4286C16.2857 11.8506 17.5649 10.5714 19.1429 10.5714C20.7208 10.5714 22 11.8506 22 13.4286V19.1429C22 20.7208 20.7208 22 19.1429 22C17.5649 22 16.2857 20.7208 16.2857 19.1429V13.4286ZM19.1429 12C18.3539 12 17.7143 12.6396 17.7143 13.4286V19.1429C17.7143 19.9318 18.3539 20.5714 19.1429 20.5714C19.9318 20.5714 20.5714 19.9318 20.5714 19.1429V13.4286C20.5714 12.6396 19.9318 12 19.1429 12Z" fill="#AFAFAF" stroke="#AFAFAF" stroke-width="0.5" stroke-linecap="round" stroke-linejoin="round"/>
</svg>
