<svg width="67" height="89" viewBox="0 0 67 89" fill="none" xmlns="http://www.w3.org/2000/svg">
<path d="M10.776 26.2283C9.96887 25.4095 8.76486 25.3472 7.95777 26.166L4.43836 29.7171C3.63128 30.5314 3.69302 31.7463 4.50011 32.5606C5.21016 33.2771 6.28186 33.3349 7.17274 32.7119L9.20589 34.7634L12.9635 30.972L10.9347 28.9205C11.5433 28.0261 11.4816 26.9403 10.776 26.2283Z" fill="#141414"/>
<path d="M33.7139 25.4896C26.2473 25.4896 20.1699 19.7713 20.1699 12.7448C20.1699 5.71825 26.2473 0 33.7139 0C41.1805 0 47.2579 5.71825 47.2579 12.7448C47.2535 19.7713 41.1805 25.4896 33.7139 25.4896ZM33.7139 2.5632C27.6454 2.5632 22.7103 7.13335 22.7103 12.7448C22.7103 18.3607 27.6454 22.9264 33.7139 22.9264C39.7825 22.9264 44.7176 18.3562 44.7176 12.7448C44.7132 7.1289 39.7781 2.5632 33.7139 2.5632Z" fill="#F9C641"/>
<path d="M35.2663 28.8226H32.6201V33.2726H35.2663V28.8226Z" fill="#D3524A"/>
<path d="M15.5897 35.7112L13.7935 37.5237L16.9369 40.6954L18.7332 38.883L15.5897 35.7112Z" fill="#D3524A"/>
<path d="M11.8918 54.6326H7.04053V57.3026H11.8918V54.6326Z" fill="#D3524A"/>
<path d="M16.9367 70.5863L13.7932 73.7581L15.5895 75.5705L18.7329 72.3987L16.9367 70.5863Z" fill="#D3524A"/>
<path d="M35.2663 78.2177H32.6201V82.6676H35.2663V78.2177Z" fill="#D3524A"/>
<path d="M50.1527 70.5823L48.3567 72.395L51.5006 75.5663L53.2966 73.7536L50.1527 70.5823Z" fill="#D3524A"/>
<path d="M60.4049 54.6326H55.9946V57.3026H60.4049V54.6326Z" fill="#D3524A"/>
<path d="M51.5004 35.712L48.3564 38.8834L50.1525 40.6961L53.2964 37.5247L51.5004 35.712Z" fill="#D3524A"/>
<path d="M38.3534 15.0276H29.9739V25.7076H38.3534V15.0276Z" fill="#141414"/>
<path d="M41.4407 16.1669C41.4407 16.5184 41.1584 16.8077 40.8056 16.8077H27.5218C27.1734 16.8077 26.8867 16.5229 26.8867 16.1669V8.99346C26.8867 8.63746 27.169 8.35266 27.5218 8.35266H40.8056C41.154 8.35266 41.4407 8.63746 41.4407 8.99346V16.1669Z" fill="#141414"/>
<path d="M53.7895 55.625V55.7007C53.7895 61.2098 51.2977 66.1849 47.7077 69.7849C44.131 73.3761 39.0724 75.6011 33.6257 75.6011C28.179 75.6011 23.3762 73.3761 19.8038 69.7849C16.2094 66.1849 14.1013 61.2098 14.1013 55.7007V55.625C14.1013 50.1293 16.3285 45.1453 19.8876 41.5408L33.9476 55.7007V35.649C39.681 35.649 44.4221 37.9051 48.0076 41.5408C51.5623 45.1453 53.7895 50.1293 53.7895 55.625Z" fill="#109065"/>
<path d="M33.5022 89C15.3053 89 0.5 74.0613 0.5 55.7007C0.5 37.34 15.3053 22.4013 33.5022 22.4013C51.6991 22.4013 66.5044 37.34 66.5044 55.7007C66.5 74.0613 51.6991 89 33.5022 89ZM33.5022 26.2461C17.4046 26.2461 4.31049 39.4582 4.31049 55.7007C4.31049 71.9431 17.4046 85.1552 33.5022 85.1552C49.5998 85.1552 62.6939 71.9387 62.6939 55.7007C62.6939 39.4582 49.5998 26.2461 33.5022 26.2461Z" fill="#141414"/>
<path d="M35.8706 53.2487C37.6303 54.7395 37.917 57.1024 36.294 58.74L36.1485 58.8869C34.5255 60.5245 32.1836 60.2396 30.7062 58.4596C27.4117 54.4991 21.6166 46.0842 18.9616 42.4085C18.4103 41.6431 19.3409 40.9266 19.9627 41.3939C24.1966 44.5667 31.9455 49.9246 35.8706 53.2487Z" fill="#141414"/>
</svg>
