<svg width="16" height="16" viewBox="0 0 16 16" fill="none" xmlns="http://www.w3.org/2000/svg">
<path fill-rule="evenodd" clip-rule="evenodd" d="M8.30469 3.51562C7.85237 3.51562 7.48438 3.14763 7.48438 2.69531V0H3.28906C2.57827 0 2 0.578273 2 1.28906V10.7109C2 11.4217 2.57827 12 3.28906 12H8.12602C8.49978 10.5478 9.66851 9.41483 11.1406 9.09254V3.51562H8.30469ZM3.92188 8.4375H5.62625C5.82041 8.4375 5.97781 8.59491 5.97781 8.78906C5.97781 8.98322 5.82041 9.14062 5.62625 9.14062H3.92188C3.72772 9.14062 3.57031 8.98322 3.57031 8.78906C3.57031 8.59491 3.72772 8.4375 3.92188 8.4375ZM3.57031 6.91406C3.57031 6.71991 3.72772 6.5625 3.92188 6.5625H9.07812C9.27228 6.5625 9.42969 6.71991 9.42969 6.91406C9.42969 7.10822 9.27228 7.26562 9.07812 7.26562H3.92188C3.72772 7.26562 3.57031 7.10822 3.57031 6.91406ZM8.1875 2.69538C8.1875 2.76 8.24007 2.81257 8.30469 2.81257H10.9839C10.9196 2.69384 10.8369 2.58478 10.7375 2.49073L8.47756 0.35271C8.38986 0.269741 8.29217 0.20053 8.18752 0.145874V2.69538H8.1875ZM5.61044 3.32301C5.46452 3.46895 5.28594 3.54292 5.07971 3.54292C4.87352 3.54292 4.69497 3.46893 4.54903 3.32304C4.40309 3.17712 4.3291 2.99857 4.3291 2.79231C4.3291 2.5861 4.40309 2.40754 4.54901 2.26163C4.69492 2.11572 4.87345 2.04175 5.07971 2.04175C5.28592 2.04175 5.46448 2.11572 5.61041 2.26161C5.75635 2.40757 5.83032 2.58612 5.83032 2.79231C5.83032 2.99857 5.75635 3.1771 5.61044 3.32301ZM6.3935 4.43813C6.3893 4.3774 6.38078 4.31116 6.36825 4.24121C6.35561 4.17074 6.33932 4.10412 6.31982 4.04323C6.29968 3.98029 6.27229 3.91814 6.23844 3.85859C6.2033 3.79677 6.16202 3.74294 6.11571 3.69864C6.06727 3.6523 6.00798 3.61505 5.93941 3.58787C5.87107 3.56084 5.79535 3.54714 5.71434 3.54714C5.68253 3.54714 5.65176 3.5602 5.59235 3.59888C5.55578 3.62273 5.51301 3.65031 5.46527 3.68081C5.42444 3.70682 5.36914 3.73119 5.30083 3.75326C5.23419 3.77482 5.16652 3.78576 5.09973 3.78576C5.03295 3.78576 4.9653 3.77482 4.89859 3.75326C4.83035 3.73122 4.77505 3.70685 4.73427 3.68084C4.68698 3.65062 4.64419 3.62304 4.60707 3.59886C4.54773 3.56017 4.51694 3.54712 4.48512 3.54712C4.4041 3.54712 4.32839 3.56084 4.26008 3.5879C4.19156 3.61502 4.13224 3.65228 4.08376 3.69867C4.03747 3.74299 3.99617 3.79679 3.96108 3.85859C3.92724 3.91814 3.89985 3.98027 3.87969 4.04325C3.86022 4.10414 3.84393 4.17074 3.83128 4.24121C3.81875 4.31107 3.81024 4.37733 3.80603 4.4382C3.8019 4.49783 3.7998 4.55972 3.7998 4.62222C3.7998 4.7849 3.85152 4.91659 3.95349 5.01372C4.05421 5.10956 4.18747 5.15818 4.34953 5.15818H5.85008C6.01214 5.15818 6.14535 5.10958 6.24609 5.01372C6.34809 4.91666 6.3998 4.78495 6.3998 4.6222C6.39978 4.55941 6.39767 4.49747 6.3935 4.43813Z" fill="#AFAFAF"/>
<path fill-rule="evenodd" clip-rule="evenodd" d="M12 16C13.6569 16 15 14.6569 15 13C15 11.3431 13.6569 10 12 10C10.3431 10 9 11.3431 9 13C9 14.6569 10.3431 16 12 16ZM13.2821 11.7205L13.2816 11.7205C13.1001 11.7192 12.9193 11.7178 12.7385 11.7212C12.7278 11.5965 12.6233 11.5 12.4979 11.5H11.5018C11.3765 11.5 11.2719 11.5965 11.2619 11.7212C11.0755 11.7178 10.8885 11.7192 10.7022 11.7205C10.6043 11.7219 10.5333 11.7762 10.5098 11.862C10.4689 12.0114 10.5594 12.1348 10.7143 12.1354C11.0364 12.1364 11.3581 12.1363 11.6798 12.1362H11.6802L12.0019 12.1361H13.2808C13.4196 12.1361 13.4993 12.0584 13.5 11.929C13.5007 11.7996 13.4202 11.7212 13.2821 11.7205ZM10.7189 12.3306C10.7189 12.3574 10.8087 13.885 10.8543 14.6096C10.867 14.81 10.9997 14.9313 11.2028 14.9313H12.7821C13.0133 14.9313 13.1353 14.8127 13.1494 14.5828C13.1869 13.9634 13.2781 12.4532 13.2848 12.3299L10.7189 12.3306Z" fill="#AFAFAF"/>
</svg>
