<svg width="25" height="24" viewBox="0 0 25 24" fill="none" xmlns="http://www.w3.org/2000/svg">
<path fill-rule="evenodd" clip-rule="evenodd" d="M22.5 5V19.1818C22.5 20.736 21.2487 22 19.7 22H5.3C3.75134 22 2.5 20.736 2.5 19.1818V5C2.5 3.34315 3.84315 2 5.5 2H19.5C21.1569 2 22.5 3.34315 22.5 5ZM20.5 17.8293C20.1872 17.9398 19.8506 18 19.5 18H5.5C5.14936 18 4.81278 17.9398 4.5 17.8293V19.1818C4.5 19.6359 4.86043 20 5.3 20H19.7C20.1396 20 20.5 19.6359 20.5 19.1818V17.8293ZM20.5 15V5C20.5 4.44772 20.0523 4 19.5 4H5.5C4.94772 4 4.5 4.44772 4.5 5V15C4.5 15.5523 4.94772 16 5.5 16H19.5C20.0523 16 20.5 15.5523 20.5 15ZM13.5 6H14.4531C15.0054 6 15.4531 6.44772 15.4531 7V7.45425C15.4531 8.00653 15.0054 8.45425 14.4531 8.45425C14.1022 8.45425 13.7935 8.27349 13.615 8H11.5139V9.00091H13.5C14.6046 9.00091 15.5 9.89634 15.5 11.0009V12C15.5 13.1046 14.6046 14 13.5 14C13.4953 14.5483 13.0494 14.9912 12.5 14.9912C11.9506 14.9912 11.5047 14.5483 11.5 14H10.5C9.9378 14 9.48608 13.5367 9.50033 12.9747L9.51427 12.4246C9.52826 11.8725 9.98718 11.4363 10.5393 11.4503C10.9206 11.4599 11.2466 11.6818 11.4072 12H13.5V11.0009H11.5139C10.4094 11.0009 9.51395 10.1055 9.51395 9.00091V8C9.51395 6.90008 10.4019 6.00754 11.5 6.00005C11.5 5.44772 11.9477 5 12.5 5C13.0523 5 13.5 5.44772 13.5 6Z" fill="#AFAFAF"/>
</svg>
