<svg width="25" height="24" viewBox="0 0 25 24" fill="none" xmlns="http://www.w3.org/2000/svg">
<path fill-rule="evenodd" clip-rule="evenodd" d="M7.77613 12.6945C7.28802 12.6945 6.89237 12.2989 6.89237 11.8108C6.89237 11.3227 7.28801 10.927 7.77613 10.927H12.0002C11.6131 10.5056 11.2913 10.0231 11.0511 9.4958H7.77613C7.28802 9.4958 6.89237 9.10014 6.89237 8.61204C6.89237 8.12393 7.28802 7.72827 7.77613 7.72827H10.5857C10.545 7.26737 10.563 6.80155 10.6394 6.34511H5.56733V20.4325H15.6398V15.0583C15.6398 14.5702 16.0354 14.1746 16.5235 14.1746C17.0116 14.1746 17.4073 14.5702 17.4073 15.0583V20.7179C17.4073 21.5353 16.7426 22.2 15.9252 22.2H5.28186C4.46448 22.2 3.7998 21.5353 3.7998 20.7179V6.05964C3.7998 5.24226 4.46448 4.57759 5.28186 4.57759H11.2651C12.2004 2.92156 13.9784 1.79999 16.0146 1.79999C19.0199 1.79999 21.4648 4.24303 21.4647 7.24661C21.4647 10.2502 19.0198 12.6933 16.0145 12.6933C15.351 12.6933 14.7147 12.5738 14.1258 12.3557C13.9644 12.5615 13.7137 12.6945 13.4309 12.6945H7.77613ZM7.09237 11.8108C7.09237 12.168 7.36628 12.4612 7.71554 12.4919C7.36637 12.4611 7.09256 12.1679 7.09256 11.8108C7.09256 11.4331 7.39867 11.127 7.77632 11.127H12.4847C11.9282 10.621 11.4807 9.99735 11.1817 9.29581H11.1815C11.4422 9.90756 11.8159 10.4601 12.2763 10.927C12.3438 10.9956 12.4133 11.0623 12.4845 11.127H7.77613C7.39848 11.127 7.09237 11.4331 7.09237 11.8108ZM7.09237 8.61204C7.09237 8.9721 7.37064 9.26714 7.72387 9.29383C7.37073 9.26705 7.09256 8.97205 7.09256 8.61205C7.09256 8.2344 7.39867 7.92829 7.77632 7.92829H10.8088C10.7315 7.33534 10.7559 6.72978 10.8814 6.14513H10.8812C10.8669 6.21154 10.854 6.27821 10.8423 6.34511C10.7629 6.80111 10.7443 7.26734 10.7865 7.72827C10.7926 7.79507 10.8 7.86175 10.8086 7.92828H7.77613C7.39848 7.92828 7.09237 8.23439 7.09237 8.61204ZM14.0453 12.1099L14.0452 12.1099C14.4427 12.2713 14.8643 12.3854 15.3029 12.4452C14.8643 12.3854 14.4428 12.2712 14.0453 12.1099ZM16.0148 2C16.0912 2 16.1673 2.00164 16.2429 2.00488C16.1672 2.00163 16.0911 1.99999 16.0146 1.99999C14.0123 1.99999 12.2685 3.12606 11.3833 4.77759H5.28186C4.57493 4.77759 3.9998 5.35272 3.9998 6.05964V20.7179C3.9998 21.3496 4.45903 21.876 5.06115 21.981C4.45912 21.876 4 21.3496 4 20.7179V6.05966C4 5.35273 4.57513 4.77761 5.28205 4.77761H11.3835C12.2687 3.12607 14.0125 2 16.0148 2ZM15.8398 15.0583C15.8398 14.6807 16.1459 14.3746 16.5235 14.3746C16.5383 14.3746 16.553 14.375 16.5676 14.3759C16.5531 14.375 16.5384 14.3746 16.5237 14.3746C16.1461 14.3746 15.84 14.6807 15.84 15.0583V20.6325H5.36752L15.8398 20.6325V15.0583ZM16.0146 3.56751C13.9839 3.56751 12.3319 5.21831 12.3319 7.24661C12.3319 9.27495 13.984 10.9258 16.0146 10.9258C18.0452 10.9258 19.6972 9.27491 19.6972 7.24661C19.6972 5.21831 18.0452 3.56751 16.0146 3.56751ZM16.0148 11.1258C15.974 11.1258 15.9334 11.1251 15.8929 11.1239C15.9333 11.1251 15.9739 11.1258 16.0146 11.1258C18.1555 11.1258 19.8972 9.38554 19.8972 7.24661C19.8972 5.23496 18.3566 3.57603 16.3923 3.38571C18.3567 3.57594 19.8974 5.23491 19.8974 7.24662C19.8974 9.38555 18.1557 11.1258 16.0148 11.1258ZM13.4311 15.8506H7.77634C7.28823 15.8506 6.89258 15.4549 6.89258 14.9668C6.89258 14.4787 7.28823 14.0831 7.77634 14.0831H13.4311C13.9192 14.0831 14.3149 14.4787 14.3149 14.9668C14.3149 15.4549 13.9192 15.8506 13.4311 15.8506ZM7.09277 14.9668C7.09277 15.3102 7.34583 15.5944 7.67563 15.6432C7.34573 15.5945 7.09258 15.3103 7.09258 14.9668C7.09258 14.5892 7.39869 14.2831 7.77634 14.2831H13.4311C13.4429 14.2831 13.4547 14.2834 13.4663 14.284C13.4547 14.2834 13.4431 14.2831 13.4313 14.2831H7.77653C7.39888 14.2831 7.09277 14.5892 7.09277 14.9668ZM7.77634 17.4818H13.4311C13.443 17.4818 13.4548 17.4821 13.4665 17.4827C13.4549 17.4821 13.4431 17.4818 13.4313 17.4818H7.77653C7.39888 17.4818 7.09277 17.7879 7.09277 18.1656C7.09277 18.4948 7.32541 18.7697 7.63527 18.8347C7.32531 18.7697 7.09258 18.4949 7.09258 18.1656C7.09258 17.7879 7.39869 17.4818 7.77634 17.4818ZM13.4311 19.0493H7.77634C7.28823 19.0493 6.89258 18.6537 6.89258 18.1656C6.89258 17.6775 7.28823 17.2818 7.77634 17.2818H13.4311C13.9192 17.2818 14.3149 17.6775 14.3149 18.1656C14.3149 18.6537 13.9192 19.0493 13.4311 19.0493ZM17.1852 8.60091C17.2838 8.65053 17.3887 8.67403 17.492 8.67403C18.1961 8.6739 18.4267 7.69467 17.7999 7.37929L16.6986 6.82518V4.42369C16.6986 4.04604 16.3925 3.73993 16.0148 3.73993C15.6372 3.73993 15.3311 4.04604 15.3311 4.42369V7.24664C15.3311 7.50501 15.4767 7.74129 15.7075 7.85745L17.1852 8.60091Z" fill="#AFAFAF"/>
</svg>
