<svg width="199" height="40" viewBox="0 0 199 40" fill="none" xmlns="http://www.w3.org/2000/svg">
<g clip-path="url(#clip0_3290_10381)">
<path d="M30.0927 7.98241C27.6088 5.53737 24.3114 4.08412 20.8245 3.8976C17.3375 3.71108 13.9029 4.80423 11.1704 6.97024C8.43792 9.13625 6.59706 12.2249 5.99611 15.6518C5.39516 19.0787 6.07581 22.6062 7.90928 25.5669C8.00033 25.7148 8.04301 25.8873 8.03142 26.0604C8.01983 26.2336 7.95455 26.3989 7.84459 26.5335C6.69691 27.988 5.79781 29.621 5.18347 31.3669V31.3824C5.13081 31.5249 5.04027 31.6504 4.92153 31.7456C4.8028 31.8408 4.66034 31.902 4.50937 31.9228C4.3584 31.9436 4.20461 31.9231 4.06443 31.8635C3.92425 31.8039 3.80295 31.7076 3.7135 31.5846C2.10103 29.3251 0.977723 26.7562 0.414887 24.0411C-0.14795 21.326 -0.138024 18.524 0.444035 15.8129C1.02609 13.1018 2.16757 10.5409 3.79601 8.29277C5.42445 6.0446 7.50427 4.15827 9.90345 2.75352C21.2595 0.642413 25.9349 3.81352 30.0927 7.98241Z" fill="url(#paint0_linear_3290_10381)"/>
<path d="M40.1507 19.7779C40.2037 24.006 38.9045 28.1411 36.4412 31.5846C36.3518 31.7069 36.2306 31.8028 36.0907 31.8619C35.9508 31.921 35.7974 31.9412 35.6469 31.9202C35.4964 31.8992 35.3545 31.8378 35.2363 31.7427C35.118 31.6476 35.028 31.5223 34.9757 31.3801V31.3646C34.3574 29.6166 33.453 27.9826 32.299 26.529C32.1895 26.3946 32.1245 26.2297 32.1129 26.057C32.1013 25.8843 32.1437 25.7123 32.2343 25.5646C33.9057 22.8557 34.6178 19.667 34.2567 16.5077C33.8956 13.3485 32.4823 10.4008 30.2423 8.13568L30.0884 7.98012C25.9306 3.81123 21.2552 0.646787 9.90137 2.75123C12.9624 0.955271 16.4491 0.00556707 20.0016 0.000120032C30.9762 -0.0376577 40.0325 8.84679 40.1507 19.7779Z" fill="url(#paint1_linear_3290_10381)"/>
<path d="M25.705 34.3911C25.705 35.501 25.3746 36.5859 24.7557 37.5087C24.1367 38.4315 23.2569 39.1507 22.2276 39.5753C21.1983 40 20.0657 40.111 18.9731 39.8943C17.8805 39.6776 16.8769 39.143 16.0893 38.358C15.3017 37.5731 14.7655 36.573 14.5484 35.4845C14.3313 34.3959 14.4432 33.2676 14.8698 32.2423C15.2964 31.2171 16.0187 30.3409 16.9452 29.7246C17.8717 29.1083 18.9609 28.7796 20.075 28.78C20.8145 28.78 21.5468 28.9252 22.23 29.2072C22.9132 29.4892 23.534 29.9026 24.0568 30.4236C24.5796 30.9447 24.9943 31.5633 25.2771 32.244C25.5599 32.9248 25.7053 33.6544 25.705 34.3911Z" fill="url(#paint2_linear_3290_10381)"/>
<path d="M33.5193 33.9246C33.3274 33.3779 33.1118 32.7794 32.8724 32.129C30.2157 24.9068 25.4065 24.6779 23.8183 24.129C22.2301 23.5801 22.4978 21.309 22.4978 21.309C24.6682 19.9912 25.1567 16.8023 25.1567 16.8023C25.1567 16.8023 25.6898 16.769 25.9731 15.0468C26.2564 13.3246 25.3039 13.2379 25.3039 13.2379C25.3039 11.9312 24.9582 6.98901 20.0843 6.98901C15.2104 6.98901 14.8557 11.9379 14.8557 13.2446C14.8557 13.2446 13.8921 13.3023 14.1865 15.0535C14.481 16.8046 15.0029 16.809 15.0029 16.809C15.0029 16.809 15.4825 20.0001 17.6529 21.3157C17.6529 21.3157 17.9228 23.5912 16.3324 24.1357C14.7419 24.6801 9.93497 24.9068 7.27831 32.1357C7.0374 32.7868 6.83219 33.3846 6.63143 33.9312C6.55651 34.1419 6.54708 34.3701 6.60439 34.5862C6.66169 34.8022 6.78306 34.9961 6.95264 35.1423C8.13717 36.1603 9.43671 37.0373 10.825 37.7557C11.0172 37.8599 11.236 37.9054 11.454 37.8867C11.6721 37.8679 11.8797 37.7856 12.0512 37.6501C12.2226 37.5146 12.3503 37.3319 12.4182 37.1246C12.4862 36.9173 12.4914 36.6948 12.4333 36.4846C12.1115 35.3133 12.0653 34.0839 12.2983 32.892C12.5313 31.7001 13.0372 30.5778 13.7766 29.6125C14.516 28.6471 15.4691 27.8647 16.5615 27.3262C17.654 26.7877 18.8565 26.5075 20.0753 26.5075C21.2942 26.5075 22.4967 26.7877 23.5892 27.3262C24.6816 27.8647 25.6347 28.6471 26.3741 29.6125C27.1135 30.5778 27.6194 31.7001 27.8524 32.892C28.0854 34.0839 28.0392 35.3133 27.7174 36.4846C27.6597 36.6945 27.6651 36.9167 27.733 37.1235C27.8009 37.3304 27.9283 37.5129 28.0993 37.6482C28.2704 37.7836 28.4776 37.866 28.6952 37.8851C28.9128 37.9042 29.1313 37.8592 29.3235 37.7557C30.7131 37.0358 32.0135 36.1565 33.1981 35.1357C33.3676 34.9894 33.489 34.7956 33.5463 34.5795C33.6036 34.3635 33.5942 34.1352 33.5193 33.9246Z" fill="url(#paint3_linear_3290_10381)"/>
<path d="M18.4842 37.2913L16.4164 35.2313C16.3485 35.1638 16.2946 35.0836 16.2578 34.9954C16.2211 34.9071 16.2021 34.8124 16.2021 34.7169C16.2021 34.6213 16.2211 34.5267 16.2578 34.4384C16.2946 34.3501 16.3485 34.2699 16.4164 34.2024C16.4843 34.1347 16.565 34.081 16.6538 34.0443C16.7426 34.0077 16.8378 33.9888 16.9339 33.9888C17.03 33.9888 17.1252 34.0077 17.214 34.0443C17.3028 34.081 17.3835 34.1347 17.4514 34.2024L18.8344 35.5802C18.879 35.6239 18.9391 35.6484 19.0017 35.6484C19.0643 35.6484 19.1243 35.6239 19.169 35.5802L22.6978 32.0491C22.7658 31.9814 22.8464 31.9276 22.9352 31.891C23.024 31.8543 23.1192 31.8354 23.2153 31.8354C23.3114 31.8354 23.4066 31.8543 23.4954 31.891C23.5842 31.9276 23.6649 31.9814 23.7328 32.0491C23.8007 32.1166 23.8546 32.1968 23.8914 32.285C23.9282 32.3733 23.9471 32.468 23.9471 32.5635C23.9471 32.6591 23.9282 32.7537 23.8914 32.842C23.8546 32.9303 23.8007 33.0105 23.7328 33.078L19.5192 37.3002C19.4508 37.3676 19.3697 37.4209 19.2806 37.457C19.1914 37.493 19.096 37.5112 18.9998 37.5103C18.9036 37.5095 18.8085 37.4897 18.72 37.4521C18.6315 37.4146 18.5514 37.3599 18.4842 37.2913Z" fill="white"/>
<path d="M50.3893 10.2668C50.5837 10.2664 50.7732 10.3278 50.93 10.4421C51.0869 10.5565 51.2031 10.7177 51.2615 10.9024L55.7785 25.0424H55.9592L60.4829 10.9002C60.5423 10.7163 60.6588 10.5559 60.8155 10.4421C60.9722 10.3283 61.1611 10.2669 61.355 10.2668H63.9783C64.1241 10.2667 64.2679 10.3012 64.3977 10.3677C64.5274 10.4342 64.6393 10.5306 64.724 10.6489C64.8087 10.7672 64.8637 10.904 64.8846 11.0478C64.9054 11.1917 64.8914 11.3384 64.8437 11.4757L58.7452 29.1113C58.6834 29.291 58.5667 29.4469 58.4115 29.5573C58.2563 29.6676 58.0704 29.7269 57.8798 29.7269H53.8646C53.6743 29.7268 53.4887 29.6674 53.3339 29.557C53.1791 29.4467 53.0628 29.2908 53.0014 29.1113L46.894 11.4757C46.8464 11.3386 46.8323 11.1921 46.853 11.0484C46.8738 10.9047 46.9286 10.7681 47.0131 10.6498C47.0975 10.5315 47.2091 10.4351 47.3386 10.3685C47.468 10.3019 47.6115 10.267 47.7572 10.2668H50.3893Z" fill="url(#paint4_linear_3290_10381)"/>
<path d="M83.9355 11.178V28.8024C83.9358 28.9222 83.9124 29.041 83.8665 29.1518C83.8207 29.2625 83.7534 29.3633 83.6684 29.4481C83.5835 29.5329 83.4826 29.6002 83.3715 29.6462C83.2604 29.6921 83.1413 29.7157 83.021 29.7157H80.8506C80.7027 29.7158 80.557 29.68 80.426 29.6115C80.295 29.543 80.1828 29.4438 80.0989 29.3224L71.8768 17.4735H71.7341V28.8068C71.7344 28.9267 71.7109 29.0454 71.6651 29.1562C71.6193 29.267 71.5519 29.3677 71.467 29.4525C71.382 29.5374 71.2811 29.6047 71.17 29.6506C71.0589 29.6965 70.9398 29.7202 70.8195 29.7202H68.522C68.2792 29.7196 68.0466 29.6231 67.8752 29.4519C67.7037 29.2807 67.6074 29.0487 67.6074 28.8068V11.178C67.6074 10.9363 67.7038 10.7046 67.8753 10.5337C68.0468 10.3628 68.2794 10.2668 68.522 10.2668H70.7526C70.9008 10.2677 71.0465 10.3046 71.1771 10.3743C71.3077 10.444 71.4193 10.5444 71.5021 10.6668L79.6572 22.5024H79.829V11.178C79.8287 11.0582 79.8521 10.9396 79.898 10.8289C79.9438 10.7183 80.0112 10.6177 80.0962 10.5331C80.1812 10.4484 80.2821 10.3813 80.3932 10.3356C80.5043 10.2899 80.6233 10.2666 80.7435 10.2668H83.021C83.1412 10.2666 83.2602 10.2899 83.3713 10.3356C83.4824 10.3813 83.5833 10.4484 83.6683 10.5331C83.7533 10.6177 83.8206 10.7183 83.8665 10.8289C83.9124 10.9396 83.9358 11.0582 83.9355 11.178Z" fill="url(#paint5_linear_3290_10381)"/>
<path d="M87.3389 28.8024V11.178C87.3389 10.9363 87.4352 10.7046 87.6067 10.5337C87.7782 10.3628 88.0109 10.2668 88.2534 10.2668H95.0412C96.5283 10.2668 97.7923 10.5468 98.8332 11.1068C99.8406 11.6325 100.671 12.4416 101.22 13.4335C101.786 14.4847 102.07 15.6633 102.045 16.8557C102.069 18.049 101.78 19.2279 101.207 20.2757C100.643 21.266 99.7991 22.0684 98.7797 22.5824C97.7224 23.1335 96.4435 23.4091 94.943 23.4091H90.9502C90.7075 23.4091 90.4746 23.3131 90.3028 23.1423C90.1309 22.9715 90.034 22.7398 90.0335 22.498V21.0268C90.0335 20.7846 90.13 20.5523 90.302 20.381C90.4739 20.2097 90.7071 20.1135 90.9502 20.1135H94.2761C94.956 20.1385 95.6316 19.9966 96.2435 19.7002C96.7411 19.4457 97.1477 19.0445 97.4079 18.5513C97.6619 18.0223 97.7937 17.4433 97.7937 16.8568C97.7937 16.2704 97.6619 15.6914 97.4079 15.1624C97.1457 14.6735 96.7372 14.2781 96.239 14.0313C95.6199 13.7408 94.9399 13.6021 94.256 13.6268H92.389C92.2686 13.6268 92.1494 13.6505 92.0381 13.6964C91.9269 13.7423 91.8258 13.8095 91.7407 13.8944C91.6556 13.9792 91.5881 14.0799 91.542 14.1907C91.4959 14.3015 91.4722 14.4202 91.4722 14.5402V28.8024C91.4725 28.9222 91.4491 29.041 91.4032 29.1518C91.3574 29.2625 91.2901 29.3633 91.2051 29.4481C91.1202 29.5329 91.0192 29.6002 90.9081 29.6462C90.797 29.6921 90.6779 29.7157 90.5576 29.7157H88.2601C88.1393 29.7163 88.0197 29.6931 87.9079 29.6475C87.7962 29.6019 87.6946 29.5347 87.609 29.4498C87.5234 29.3649 87.4554 29.2641 87.4091 29.153C87.3627 29.0418 87.3389 28.9227 87.3389 28.8024Z" fill="url(#paint6_linear_3290_10381)"/>
<path d="M103.981 12.7446V11.178C103.981 11.0581 104.005 10.9395 104.051 10.8288C104.097 10.7181 104.165 10.6176 104.25 10.5329C104.335 10.4483 104.436 10.3812 104.548 10.3356C104.659 10.2899 104.778 10.2666 104.898 10.2668H119.101C119.221 10.2666 119.34 10.2899 119.451 10.3356C119.562 10.3812 119.664 10.4483 119.749 10.5329C119.834 10.6176 119.901 10.7181 119.948 10.8288C119.994 10.9395 120.017 11.0581 120.017 11.178V12.7446C120.017 12.8645 119.994 12.9831 119.948 13.0938C119.901 13.2045 119.834 13.305 119.749 13.3897C119.664 13.4743 119.562 13.5414 119.451 13.587C119.34 13.6327 119.221 13.656 119.101 13.6557H114.954C114.711 13.6563 114.478 13.7528 114.307 13.924C114.136 14.0952 114.039 14.3272 114.039 14.5691V28.8024C114.039 29.0442 113.943 29.2762 113.772 29.4474C113.6 29.6187 113.367 29.7151 113.125 29.7157H110.874C110.631 29.7151 110.399 29.6187 110.227 29.4474C110.056 29.2762 109.959 29.0442 109.959 28.8024V14.5691C109.959 14.3272 109.863 14.0952 109.692 13.924C109.52 13.7528 109.288 13.6563 109.045 13.6557H104.898C104.778 13.656 104.659 13.6327 104.548 13.587C104.436 13.5414 104.335 13.4743 104.25 13.3897C104.165 13.305 104.097 13.2045 104.051 13.0938C104.005 12.9831 103.981 12.8645 103.981 12.7446Z" fill="url(#paint7_linear_3290_10381)"/>
<path d="M135.487 30.0003C133.983 30.0003 132.688 29.6951 131.604 29.0847C130.53 28.4831 129.659 27.5775 129.101 26.4825C128.489 25.2392 128.188 23.8668 128.225 22.4825C128.194 21.1145 128.495 19.7593 129.101 18.5314C129.656 17.4337 130.514 16.5169 131.575 15.8892C132.715 15.2358 134.012 14.9068 135.327 14.9381C136.248 14.9303 137.162 15.086 138.028 15.3981C138.85 15.6971 139.598 16.1685 140.221 16.7803C140.872 17.4357 141.372 18.2253 141.684 19.0936C142.054 20.1379 142.231 21.24 142.208 22.347V22.5447C142.208 22.7866 142.112 23.0186 141.941 23.1898C141.769 23.361 141.537 23.4575 141.294 23.4581H130.761C130.518 23.4581 130.284 23.3618 130.113 23.1906C129.941 23.0193 129.844 22.787 129.844 22.5447V21.8625C129.844 21.6203 129.941 21.388 130.113 21.2167C130.284 21.0454 130.518 20.9492 130.761 20.9492H137.299C137.449 20.9494 137.598 20.9125 137.731 20.8418C137.864 20.7711 137.977 20.6687 138.061 20.5438C138.145 20.4189 138.196 20.2753 138.211 20.1258C138.225 19.9763 138.202 19.8255 138.144 19.687C138.104 19.5894 138.058 19.4944 138.006 19.4025C137.761 18.9608 137.399 18.5942 136.96 18.3425C136.483 18.0785 135.944 17.9458 135.398 17.9581C134.825 17.9473 134.259 18.0933 133.763 18.3803C133.297 18.6522 132.913 19.0426 132.648 19.5114C132.378 19.9915 132.237 20.5325 132.237 21.0825V23.467C132.221 24.114 132.36 24.7555 132.643 25.3381C132.898 25.8471 133.298 26.2699 133.792 26.5536C134.331 26.8491 134.939 26.9964 135.554 26.9803C135.975 26.9856 136.394 26.9217 136.795 26.7914C137.153 26.6741 137.482 26.479 137.756 26.2203C137.898 26.0882 138.022 25.9389 138.126 25.7759C138.214 25.633 138.339 25.5163 138.488 25.4381C138.637 25.3599 138.804 25.3231 138.972 25.3314L140.939 25.4603C141.089 25.4704 141.235 25.5172 141.363 25.5966C141.491 25.676 141.597 25.7856 141.672 25.9157C141.747 26.0458 141.789 26.1923 141.794 26.3423C141.799 26.4924 141.766 26.6413 141.7 26.7759C141.503 27.1781 141.252 27.5519 140.955 27.887C140.334 28.578 139.556 29.1113 138.686 29.4425C137.666 29.8314 136.58 30.0208 135.487 30.0003Z" fill="url(#paint8_linear_3290_10381)"/>
<path d="M144.934 28.8024V11.178C144.934 11.0581 144.957 10.9395 145.003 10.8288C145.05 10.7181 145.117 10.6176 145.202 10.5329C145.287 10.4483 145.388 10.3812 145.5 10.3356C145.611 10.2899 145.73 10.2666 145.85 10.2668H148.146C148.266 10.2666 148.385 10.2899 148.496 10.3356C148.608 10.3812 148.709 10.4483 148.794 10.5329C148.879 10.6176 148.947 10.7181 148.993 10.8288C149.039 10.9395 149.062 11.0581 149.062 11.178V18.8424C149.143 18.8425 149.222 18.8245 149.295 18.7899C149.368 18.7553 149.431 18.7049 149.482 18.6424L156.071 10.6024C156.157 10.4973 156.265 10.4126 156.388 10.3545C156.51 10.2964 156.645 10.2665 156.78 10.2668H159.346C159.519 10.2666 159.69 10.3157 159.837 10.4084C159.983 10.5011 160.101 10.6335 160.175 10.7902C160.249 10.947 160.276 11.1214 160.254 11.2932C160.232 11.465 160.162 11.627 160.05 11.7602L154.309 18.6668C154.233 18.7568 154.189 18.8689 154.184 18.9861C154.178 19.1032 154.211 19.219 154.278 19.3157L160.405 28.2957C160.499 28.4327 160.553 28.5925 160.563 28.7581C160.572 28.9236 160.536 29.0885 160.458 29.235C160.38 29.3816 160.264 29.5042 160.121 29.5897C159.979 29.6752 159.815 29.7203 159.649 29.7202H156.93C156.779 29.72 156.631 29.6828 156.498 29.6119C156.366 29.5409 156.253 29.4385 156.169 29.3135L151.779 22.7491C151.7 22.6303 151.594 22.5318 151.469 22.4614C151.345 22.3911 151.205 22.3508 151.062 22.3439C150.919 22.3369 150.777 22.3636 150.646 22.4216C150.515 22.4796 150.4 22.5674 150.309 22.678L149.27 23.9402C149.136 24.1033 149.063 24.3073 149.062 24.518V28.8068C149.062 28.9268 149.039 29.0456 148.993 29.1564C148.947 29.2672 148.879 29.3679 148.794 29.4527C148.709 29.5375 148.608 29.6048 148.497 29.6507C148.385 29.6966 148.266 29.7202 148.146 29.7202H145.85C145.73 29.7202 145.61 29.6964 145.499 29.6502C145.387 29.6041 145.286 29.5364 145.201 29.4511C145.115 29.3658 145.048 29.2646 145.002 29.1533C144.956 29.042 144.933 28.9227 144.934 28.8024Z" fill="url(#paint9_linear_3290_10381)"/>
<path d="M163.869 10.2668H166.374C166.54 10.2668 166.704 10.3119 166.846 10.3972C166.989 10.4825 167.106 10.6049 167.184 10.7513L171.377 18.6424H171.569L175.772 10.7513C175.849 10.6051 175.966 10.4828 176.108 10.3974C176.25 10.3121 176.413 10.267 176.579 10.2668H179.084C179.244 10.267 179.401 10.3089 179.54 10.3882C179.678 10.4675 179.794 10.5816 179.874 10.719C179.955 10.8565 179.998 11.0126 180 11.1718C180.001 11.3311 179.961 11.4879 179.883 11.6268L173.65 22.6313C173.573 22.7668 173.532 22.9199 173.532 23.0757V28.798C173.532 29.0402 173.436 29.2725 173.264 29.4438C173.092 29.6151 172.859 29.7113 172.615 29.7113H170.338C170.095 29.7107 169.863 29.6142 169.691 29.443C169.52 29.2718 169.423 29.0398 169.423 28.798V23.0802C169.423 22.9243 169.382 22.7712 169.305 22.6357L163.073 11.6268C162.994 11.4882 162.953 11.3314 162.954 11.1721C162.955 11.0128 162.998 10.8565 163.079 10.7189C163.159 10.5813 163.275 10.4671 163.413 10.3878C163.552 10.3085 163.709 10.2668 163.869 10.2668Z" fill="url(#paint10_linear_3290_10381)"/>
<path d="M197.835 17.0757H195.488C195.289 17.0745 195.096 17.0088 194.937 16.8886C194.779 16.7684 194.664 16.6001 194.61 16.409C194.531 16.1402 194.422 15.8808 194.286 15.6357C194.057 15.2218 193.749 14.8559 193.38 14.5579C193.002 14.255 192.571 14.0237 192.109 13.8757C191.605 13.7125 191.078 13.6322 190.548 13.6379C189.612 13.6167 188.692 13.8761 187.907 14.3824C187.125 14.919 186.518 15.6724 186.162 16.549C185.72 17.645 185.509 18.8196 185.542 20.0002C185.542 21.3868 185.75 22.5513 186.167 23.4935C186.507 24.3594 187.108 25.0992 187.887 25.6113C188.666 26.1234 189.586 26.3826 190.519 26.3535C191.04 26.3574 191.559 26.2825 192.058 26.1313C192.515 25.9955 192.943 25.7787 193.322 25.4913C193.693 25.2038 194.005 24.8486 194.241 24.4446C194.385 24.2053 194.501 23.9512 194.589 23.6868C194.651 23.5048 194.768 23.3465 194.924 23.2345C195.081 23.1224 195.269 23.0622 195.462 23.0624L197.813 23.0735C197.954 23.074 198.094 23.1071 198.22 23.1702C198.346 23.2333 198.457 23.3247 198.542 23.4373C198.627 23.5498 198.685 23.6805 198.711 23.819C198.737 23.9575 198.73 24.1001 198.692 24.2357C198.283 25.637 197.488 26.8958 196.396 27.869C195.642 28.5375 194.769 29.0591 193.822 29.4068C192.743 29.7985 191.6 29.9898 190.452 29.9713C188.819 29.9992 187.208 29.5934 185.785 28.7957C184.399 27.9913 183.274 26.8073 182.544 25.3846C181.754 23.9031 181.359 22.1024 181.357 19.9824C181.356 17.8624 181.757 16.0579 182.56 14.569C183.296 13.1516 184.424 11.9735 185.81 11.1735C187.225 10.3796 188.827 9.97464 190.452 10.0002C191.521 9.9904 192.585 10.1509 193.604 10.4757C194.541 10.7744 195.415 11.2422 196.182 11.8557C196.936 12.4674 197.559 13.2229 198.016 14.0779C198.332 14.6655 198.569 15.2915 198.723 15.9402C198.756 16.0747 198.759 16.215 198.73 16.3506C198.701 16.4862 198.641 16.6134 198.556 16.7228C198.47 16.8321 198.361 16.9207 198.236 16.9818C198.111 17.043 197.974 17.0751 197.835 17.0757Z" fill="url(#paint11_linear_3290_10381)"/>
</g>
<defs>
<linearGradient id="paint0_linear_3290_10381" x1="5.63183" y1="29.1113" x2="16.7239" y2="8.18995" gradientUnits="userSpaceOnUse">
<stop stop-color="#41E58F"/>
<stop offset="1" stop-color="#17C389"/>
</linearGradient>
<linearGradient id="paint1_linear_3290_10381" x1="22.8345" y1="1.93345" x2="29.9158" y2="28.3646" gradientUnits="userSpaceOnUse">
<stop stop-color="#41E58F"/>
<stop offset="1" stop-color="#17C389"/>
</linearGradient>
<linearGradient id="paint2_linear_3290_10381" x1="33.8089" y1="18.02" x2="14.6751" y2="40.9977" gradientUnits="userSpaceOnUse">
<stop stop-color="#41E58F"/>
<stop offset="1" stop-color="#17C389"/>
</linearGradient>
<linearGradient id="paint3_linear_3290_10381" x1="31.1927" y1="14.2001" x2="11.2662" y2="38.134" gradientUnits="userSpaceOnUse">
<stop stop-color="#41E58F"/>
<stop offset="1" stop-color="#17C389"/>
</linearGradient>
<linearGradient id="paint4_linear_3290_10381" x1="55.8677" y1="11.4868" x2="55.8677" y2="29.0224" gradientUnits="userSpaceOnUse">
<stop stop-color="#278EFF"/>
<stop offset="1" stop-color="#0667E1"/>
</linearGradient>
<linearGradient id="paint5_linear_3290_10381" x1="75.7715" y1="11.4868" x2="75.7715" y2="29.0224" gradientUnits="userSpaceOnUse">
<stop stop-color="#278EFF"/>
<stop offset="1" stop-color="#0667E1"/>
</linearGradient>
<linearGradient id="paint6_linear_3290_10381" x1="94.6887" y1="11.4868" x2="94.6887" y2="29.0224" gradientUnits="userSpaceOnUse">
<stop stop-color="#278EFF"/>
<stop offset="1" stop-color="#0667E1"/>
</linearGradient>
<linearGradient id="paint7_linear_3290_10381" x1="111.998" y1="11.4868" x2="111.998" y2="29.0224" gradientUnits="userSpaceOnUse">
<stop stop-color="#278EFF"/>
<stop offset="1" stop-color="#0667E1"/>
</linearGradient>
<linearGradient id="paint8_linear_3290_10381" x1="135.218" y1="29.1603" x2="135.218" y2="14.507" gradientUnits="userSpaceOnUse">
<stop stop-color="#17C389"/>
<stop offset="1" stop-color="#41E58F"/>
</linearGradient>
<linearGradient id="paint9_linear_3290_10381" x1="152.75" y1="29.1602" x2="152.75" y2="14.5068" gradientUnits="userSpaceOnUse">
<stop stop-color="#17C389"/>
<stop offset="1" stop-color="#41E58F"/>
</linearGradient>
<linearGradient id="paint10_linear_3290_10381" x1="171.473" y1="29.1602" x2="171.473" y2="14.5068" gradientUnits="userSpaceOnUse">
<stop stop-color="#17C389"/>
<stop offset="1" stop-color="#41E58F"/>
</linearGradient>
<linearGradient id="paint11_linear_3290_10381" x1="190.055" y1="29.1602" x2="190.055" y2="14.5068" gradientUnits="userSpaceOnUse">
<stop stop-color="#17C389"/>
<stop offset="1" stop-color="#41E58F"/>
</linearGradient>
<clipPath id="clip0_3290_10381">
<rect width="198.75" height="40" fill="white"/>
</clipPath>
</defs>
</svg>
