<svg width="25" height="24" viewBox="0 0 25 24" fill="none" xmlns="http://www.w3.org/2000/svg">
<path d="M19.6562 3H4.34375C3.05133 3 2 4.05133 2 5.34375V18.3125C2 20.0357 3.40182 21.4375 5.125 21.4375H18.875C20.5982 21.4375 22 20.0357 22 18.3125C22 17.881 21.6503 17.5312 21.2187 17.5312C20.7872 17.5312 20.4375 17.881 20.4375 18.3125C20.4375 19.174 19.7365 19.875 18.875 19.875H5.125C4.26349 19.875 3.5625 19.174 3.5625 18.3125V7.72656H20.4375V14.4062C20.4375 14.8378 20.7872 15.1875 21.2187 15.1875C21.6503 15.1875 22 14.8378 22 14.4062V5.34375C22 4.05133 20.9487 3 19.6562 3ZM16.4922 4.5625C16.9229 4.5625 17.2734 4.91299 17.2734 5.34375C17.2734 5.77451 16.9229 6.125 16.4922 6.125C16.0614 6.125 15.7109 5.77451 15.7109 5.34375C15.7109 4.91299 16.0614 4.5625 16.4922 4.5625ZM20.3984 5.34375C20.3984 5.77451 20.0479 6.125 19.6172 6.125C19.1864 6.125 18.8359 5.77451 18.8359 5.34375C18.8359 4.91299 19.1864 4.5625 19.6172 4.5625C20.0479 4.5625 20.3984 4.91299 20.3984 5.34375ZM3.5625 5.34375C3.5625 4.91299 3.91299 4.5625 4.34375 4.5625H14.2829C14.196 4.8071 14.1484 5.06985 14.1484 5.34375C14.1484 5.63229 14.2011 5.90863 14.2969 6.16406H3.5625V5.34375Z" fill="#109065"/>
<path d="M6.07327 13.8818C6.21938 13.9637 6.37199 14.0367 6.53107 14.1008C6.75744 14.1926 6.94348 14.2784 7.09002 14.3579L7.09002 14.3579L7.09152 14.3587C7.23667 14.4344 7.3378 14.5146 7.40163 14.5966C7.46156 14.6737 7.49376 14.7698 7.49376 14.891C7.49376 15.0052 7.46601 15.101 7.41325 15.182C7.36216 15.2585 7.28119 15.3225 7.16217 15.3706C7.04614 15.4161 6.89371 15.4411 6.7011 15.4411C6.46463 15.4411 6.2324 15.409 6.00416 15.3447C5.77059 15.2767 5.56034 15.2016 5.37314 15.1196C5.34222 15.1061 5.30656 15.109 5.2783 15.1275C5.25004 15.146 5.23301 15.1774 5.23301 15.2112V15.9421C5.23301 15.9809 5.25534 16.0161 5.29035 16.0326C5.41027 16.0892 5.5417 16.1374 5.68434 16.1775L5.68434 16.1775L5.68611 16.178C5.83094 16.2158 5.98411 16.2447 6.14551 16.2646C6.30731 16.2845 6.47636 16.2944 6.65259 16.2944C7.01589 16.2944 7.33375 16.2391 7.60339 16.1249C7.87528 16.0107 8.08797 15.8439 8.23617 15.6229C8.38688 15.4014 8.46029 15.1398 8.46029 14.8425C8.46029 14.582 8.40936 14.3573 8.30094 14.174C8.19505 13.993 8.04328 13.8399 7.84884 13.714C7.66128 13.5912 7.43453 13.4754 7.16968 13.3659C6.9452 13.2718 6.76311 13.187 6.62258 13.1115C6.48894 13.0386 6.39666 12.9624 6.33902 12.8853C6.28663 12.8105 6.25775 12.7155 6.25775 12.5947C6.25775 12.4882 6.28272 12.4025 6.32844 12.3329C6.37665 12.2607 6.44772 12.2022 6.54686 12.1592C6.64528 12.1165 6.76998 12.0931 6.92427 12.0931C7.10558 12.0931 7.28249 12.1158 7.45523 12.161L7.45551 12.1611C7.63392 12.2072 7.81826 12.2693 8.00854 12.3476C8.03331 12.3578 8.06113 12.3576 8.08576 12.3471C8.1104 12.3366 8.1298 12.3166 8.13961 12.2917L8.38541 11.6675C8.40498 11.6178 8.38205 11.5615 8.33333 11.5396C8.11639 11.4422 7.89476 11.3669 7.66851 11.3136C7.44243 11.2599 7.20179 11.2333 6.94691 11.2333C6.62359 11.2333 6.33578 11.2857 6.08581 11.3935L6.08581 11.3935L6.0855 11.3936C5.83724 11.5017 5.64052 11.6587 5.49942 11.8656L5.49942 11.8656L5.49899 11.8663C5.35895 12.0751 5.29122 12.3239 5.29122 12.6076C5.29122 12.8183 5.32406 13.0067 5.39283 13.1703L5.39282 13.1703L5.39353 13.1719C5.46313 13.3297 5.55759 13.4676 5.67699 13.5846C5.79339 13.6987 5.92542 13.7977 6.0727 13.8815L6.07327 13.8818ZM13.0195 15.1047L13.0196 15.1044C13.2283 14.7279 13.3297 14.2648 13.3297 13.7202C13.3297 13.2011 13.2303 12.7583 13.0258 12.3968C12.8218 12.0343 12.5319 11.7603 12.1582 11.5768C11.7858 11.3918 11.3473 11.3012 10.8461 11.3012H9.39063C9.3354 11.3012 9.29063 11.346 9.29063 11.4012V16.1297C9.29063 16.185 9.3354 16.2297 9.39063 16.2297H10.7037C11.2472 16.2297 11.7176 16.1385 12.1115 15.9516L12.1119 15.9514C12.5073 15.7617 12.8108 15.479 13.0195 15.1047ZM12.1467 12.829L12.147 12.8296C12.2611 13.0617 12.3211 13.3644 12.3211 13.7428C12.3211 14.3035 12.1836 14.7076 11.9257 14.9734C11.6687 15.2383 11.2723 15.3796 10.7167 15.3796H10.2669V12.1449H10.8299C11.1634 12.1449 11.4365 12.2043 11.6536 12.3178L11.6536 12.3178L11.6545 12.3183C11.8713 12.4287 12.0351 12.5976 12.1467 12.829ZM17.973 16.2297C18.01 16.2297 18.0441 16.2093 18.0614 16.1765C18.0787 16.1438 18.0765 16.1041 18.0557 16.0735L16.2906 13.478L18.007 11.4661C18.0324 11.4365 18.0381 11.3948 18.0218 11.3593C18.0054 11.3239 17.97 11.3012 17.931 11.3012H17.0545C17.0252 11.3012 16.9974 11.3141 16.9784 11.3363L15.6459 12.8985L15.6451 12.8994L15.4996 13.074L15.354 13.2487C15.3169 13.2933 15.2799 13.3379 15.243 13.3825V11.4012C15.243 11.346 15.1982 11.3012 15.143 11.3012H14.3668C14.3116 11.3012 14.2668 11.346 14.2668 11.4012V16.1297C14.2668 16.185 14.3116 16.2297 14.3668 16.2297H15.143C15.1982 16.2297 15.243 16.185 15.243 16.1297V14.4082L15.5876 14.1282L16.9979 16.1863C17.0165 16.2135 17.0474 16.2297 17.0803 16.2297H17.973Z" fill="#109065" stroke="#109065" stroke-width="0.2" stroke-linejoin="round"/>
</svg>
