<svg width="16" height="16" viewBox="0 0 16 16" fill="none" xmlns="http://www.w3.org/2000/svg">
<g clip-path="url(#clip0_5722_13105)">
<path d="M10.5 7C10.5 8.38071 9.38071 9.5 8 9.5C6.61929 9.5 5.5 8.38071 5.5 7C5.5 5.61929 6.61929 4.5 8 4.5C9.38071 4.5 10.5 5.61929 10.5 7Z" fill="#AFAFAF" stroke="#AFAFAF"/>
<path d="M11.6204 12.7254L11.9568 13.1179L12.3379 12.7686C13.6253 11.5884 14.5 9.96036 14.5 8C14.5 4.42386 11.5761 1.5 8 1.5C4.42386 1.5 1.5 4.42386 1.5 8C1.5 9.96036 2.37472 11.5884 3.66214 12.7686L4.04321 13.1179L4.37963 12.7254C4.66233 12.3956 4.96685 12.0962 5.36684 11.8751C5.76199 11.6567 6.2777 11.5 7 11.5H9C9.7223 11.5 10.238 11.6567 10.6332 11.8751C11.0331 12.0962 11.3377 12.3956 11.6204 12.7254ZM0.5 8C0.5 3.87614 3.87614 0.5 8 0.5C12.1239 0.5 15.5 3.87614 15.5 8C15.5 12.1239 12.1239 15.5 8 15.5C3.87614 15.5 0.5 12.1239 0.5 8Z" fill="#AFAFAF" stroke="#AFAFAF"/>
</g>
<defs>
<clipPath id="clip0_5722_13105">
<rect width="16" height="16" fill="white"/>
</clipPath>
</defs>
</svg>
